<?xml version="1.0" encoding="utf-8"?>
<!-- Generator: Adobe Illustrator 24.0.2, SVG Export Plug-In . SVG Version: 6.00 Build 0)  -->
<svg version="1.1" id="Layer_1" xmlns="http://www.w3.org/2000/svg" xmlns:xlink="http://www.w3.org/1999/xlink" x="0px" y="0px"
	 viewBox="0 0 2000 2000" style="enable-background:new 0 0 2000 2000;" xml:space="preserve">
<style type="text/css">
	.st0{fill:#034FF3;}
</style>
<path class="st0" d="M1748.88,984.61c0,28.68-16.24,54.88-41.93,67.64l-750.54,372.78c-6.25,3.11-12.9,4.58-19.42,4.58
	c-16.09,0-31.58-8.9-39.21-24.29c-10.74-21.65-1.92-47.91,19.71-58.65l644.09-319.9c0.22-0.11,0.14-0.44-0.1-0.44H296.07
	c-24.19,0-44.71-19.12-44.95-43.31c-0.12-12.26,4.79-23.36,12.81-31.37c7.92-7.92,18.85-12.81,30.93-12.81l1266.62,0
	c0.24,0,0.32-0.33,0.1-0.44l-644.09-319.9c-21.63-10.74-30.45-37-19.71-58.63c7.65-15.38,23.14-24.31,39.21-24.31
	c6.54,0,13.17,1.48,19.42,4.58l746.9,370.97C1731.23,924.96,1748.88,953.44,1748.88,984.61L1748.88,984.61z"/>
</svg>
