<?xml version="1.0" encoding="UTF-8"?>
<!DOCTYPE svg PUBLIC "-//W3C//DTD SVG 1.1//EN" "http://www.w3.org/Graphics/SVG/1.1/DTD/svg11.dtd">
<!-- Creator: CorelDRAW 2021 (64-Bit) -->
<svg xmlns="http://www.w3.org/2000/svg" xml:space="preserve" width="8.26772in" height="8.26772in" version="1.1" shape-rendering="geometricPrecision" text-rendering="geometricPrecision" image-rendering="optimizeQuality" fill-rule="evenodd" clip-rule="evenodd"
viewBox="0 0 8267.72 8267.72"
 xmlns:xlink="http://www.w3.org/1999/xlink"
 xmlns:xodm="http://www.corel.com/coreldraw/odm/2003">
 <g id="Layer_x0020_1">
  <metadata id="CorelCorpID_0Corel-Layer"/>
  <path fill="white" d="M5518.15 4740.15l-1458.85 0 0.15 -969.28 2430.29 23.26 18.24 152.32c74.06,618.42 -23.04,1244.27 -396.11,1755.91 -315.91,433.26 -782.89,715.31 -1303.03,830.73 -521.44,115.7 -1077.84,59.85 -1567.39,-152.93 -539.39,-234.44 -964.95,-642 -1230.56,-1166.17 -283.56,-559.59 -368.78,-1174.38 -176.9,-1777.73 168.38,-529.46 529.73,-978.05 986.44,-1289.21 970.24,-661.04 2252.72,-650.48 3087.62,234.67l118.88 126.03 -677.31 648.53 -119.72 -98.87c-57.09,-47.15 -111.6,-100.02 -169.93,-144.9 -62.06,-47.74 -132.87,-83.44 -203.68,-116.2 -532.06,-246.19 -1138.99,-160.44 -1580.53,223.99 -464.18,404.15 -606.53,1010.41 -425.5,1591.6 384.15,1233.28 2284.17,1403.79 2667.89,128.26z"/>
 </g>
</svg>
