<?xml version="1.0" encoding="utf-8"?>
<!-- Generator: Adobe Illustrator 24.0.2, SVG Export Plug-In . SVG Version: 6.00 Build 0)  -->
<svg version="1.1" id="Layer_1" xmlns="http://www.w3.org/2000/svg" xmlns:xlink="http://www.w3.org/1999/xlink" x="0px" y="0px"
	 viewBox="0 0 595.3 595.3" style="enable-background:new 0 0 595.3 595.3;" xml:space="preserve">
<style type="text/css">
	.st0{fill:none;stroke:#1B1B1B;stroke-width:0.7213;stroke-linecap:round;stroke-linejoin:round;}
	.st1{fill:#4AA2E7;}
	.st2{fill:#BBE9F9;}
	.st3{fill:#1B1B1B;}
	.st4{fill:#3C8AAC;}
	.st5{fill:#F8EFE5;}
	.st6{fill:#1B1B1B;stroke:#1B1B1B;stroke-width:0.8014;stroke-linecap:round;stroke-linejoin:round;}
	.st7{fill:#EBC7B5;}
	.st8{fill:none;stroke:#1B1B1B;stroke-width:0.8014;stroke-linecap:round;stroke-linejoin:round;}
	.st9{fill:none;stroke:#1B1B1B;stroke-width:0.7173;stroke-linecap:round;stroke-linejoin:round;}
	
		.st10{opacity:0.84;fill:none;stroke:#1B1B1B;stroke-width:0.7774;stroke-linecap:round;stroke-linejoin:round;enable-background:new    ;}
	.st11{fill:none;stroke:#1B1B1B;stroke-width:0.7774;stroke-linecap:round;stroke-linejoin:round;}
	.st12{fill:none;stroke:#FFFFFF;stroke-width:0.8014;stroke-linecap:round;stroke-linejoin:round;}
	
		.st13{opacity:0.83;fill:#1B1B1B;stroke:#1B1B1B;stroke-width:0.8014;stroke-linecap:round;stroke-linejoin:round;enable-background:new    ;}
	.st14{fill:#39B54A;}
	.st15{fill:#F8EFE5;stroke:#1B1B1B;stroke-width:0.8014;stroke-linecap:round;stroke-linejoin:round;}
	.st16{fill:none;stroke:#1B1B1B;stroke-width:0.9336;stroke-linecap:round;stroke-linejoin:round;}
</style>
<g>
	<path class="st0" d="M535.1,494.4l-24.2-136.1"/>
	<path class="st1" d="M524.6,415.4c0.3,1.6-0.8,3.2-2.4,3.5c-1.6,0.3-3.2-0.8-3.5-2.4l-9.3-50.1c-0.3-1.6,0.8-3.2,2.4-3.5
		c1.6-0.3,3.2,0.8,3.5,2.4L524.6,415.4z"/>
	<path class="st2" d="M518.5,530c-0.4-0.6-0.9-1.2-1.4-1.8c19.5-125.6,50.3-163.9,50.3-163.9c-20.1,53-39.6,129.3-48.6,166.2
		L518.5,530z"/>
	<path class="st3" d="M530.6,545.4c-1-102.3,0.7-191.3,0.7-191.3c11.2,56.7,5.2,150.5,1.6,192.8
		C532.1,546.4,531.4,545.9,530.6,545.4z"/>
	<path class="st2" d="M541.9,546.4c0,0-0.9-140.5-24.1-213.2C517.8,333.2,527.6,435.7,541.9,546.4z"/>
	<path class="st0" d="M532.4,491.8l16.6-157"/>
	<path class="st4" d="M496.2,199.5c-8.5-8.6-34.4-15-34.4-15l-15.1-3.3c0,0,1.4,29.1,2.2,29.1s20.9,2.1,20.9,2.1l10.7-2"/>
	<path class="st1" d="M247,170.8c0,5.7,3.7,9.4,10.5,16.2c6,6,29.1,25.2,33.7,29l0.6,0.5l0.6-0.5c7.4-5.8,44.6-35.2,49.8-40.4
		c4.8-4.9,11.2-7.9,18-8.7l6.8-1.1l-1-11.6h7.5v42.3l26.6-32.3l3.6-10.5H424l-1.9,9.5l1.4,0.6l15.4,6c0.4,0.1,0.8,0.2,1.1,0.4
		l0.5,0.2c7.7,2.9,13.2,10.8,19.6,28c8.5,22.6,22.7,69,26.6,83.6c1.6,6,1,10.7-1.6,14.3c-3.4,4.4-10.2,6.7-20.3,6.7
		c-5.8,0-14.4-1.6-23.6-3.4c-7.8-1.5-16.7-3.1-24.6-3.9l1.3,0.4l-4.1,12.1c0,0-24.5,1.8-33.6,8.4c-5.9,4.4-11.4,9.4-16.3,14.9
		l-42.8-0.2l-3.1-4.4c-1.7-2.5-2.9-5.3-3.5-8.3c-0.6-3-0.5-6,0.2-9l17-81.4l-1.8,1.1c-8.9,5.1-20.4,11.8-25,14.6
		c-2.7,1.7-8.9,5.6-15.8,5.6c-2.4,0-4.8-0.5-7-1.5c-2.2-1-4.2-2.4-5.8-4.1c-3-3.4-29.9-33.7-36.7-40.6c-7.1-7.1-13.2-6.7-13.3-6.7
		C241.2,195.5,246.5,185.4,247,170.8z M448.3,273.2l-12.7-28.9l-10,29.1L448.3,273.2z"/>
	<path class="st5" d="M397.6,299.5c1.9-1,3.9-3.8,3.9-3.8s1.7-7.1-2-11.9c-3.6-4.8-12-7.7-12-7.7l-21.2,8l-12.4,5.5l-10.2,9.9
		l-8,12.2l0.9,2.9l1.6,0.4c0,0,2.7-0.3,2.7-1c0-0.7,10.3-9.5,10.3-9.5l8.5-7.4l-2.1,8.4c-0.2,0.7-0.2,1.4,0,2c0.2,0.7,0.5,1.3,1,1.8
		c1.6,1.6,7.9,4.3,7.9,4.3l9.1,3h4.9c0,0,2.7-4.4,2.7-6.1c0-1.7-1.7-5-1.7-5C387,304.2,392.5,302.2,397.6,299.5L397.6,299.5z"/>
	<path class="st2" d="M369.7,361.2c12.7-28,23.1-36.5,44.8-36.5h28.6c33.4,0,54.9-8.4,66.9-26.6c-13.2,34.2-36.5,73.2-51.5,98.3
		l-0.5,0.8c-3.8,6.3-9.1,11.5-15.5,15.1c-6.4,3.6-13.6,5.5-20.9,5.5l-94.2-0.5C346.1,410.2,357.8,387.7,369.7,361.2z"/>
	<path class="st5" d="M394.7,170.9l-21.1,25.5v-26.6L394.7,170.9z"/>
	<path class="st5" d="M245.1,182.8c0,0-3.9,14-17,13.9c-13.1-0.1-16-2.8-16-2.8l-9.8-7.9l-3.3-1.8l-4.5-1.5l-0.9-4l-6.7-2.4
		l-2.9-2.1l-19.5-19.5c0,0-3.6-2.2,0.5-2.2c4.1,0,4.6,0.2,4.6,0.2l10.7,8.6l-2.1-8.8l5.7,1.1l5,9.7l-0.4-3.5l3.8-1.1l2.9,3.1
		l1.8,5.5h3.5l1.5-2.3l2.8,1.4l0.8,1.1c0,0,16.9,1.6,21-0.1c4.1-1.7,4.6-4.8,4.1-6.5c-0.5-1.7-5.1-10.7-5.7-12.5
		c-0.6-1.8-1.1-4.8,0.2-6.1c0.4-0.4,0.8-0.6,1.3-0.8c0.5-0.2,1-0.2,1.5-0.1l10.3,14.4c0,0,7.1,10.1,7.6,11.8
		C246.4,169.5,247.7,178.6,245.1,182.8z"/>
	<path class="st2" d="M98,303.7c0,11.6,11.7,21,26,21c14.4,0,26.1-9.4,26.1-21H98z"/>
	<path class="st5" d="M124,324.7h7.5c1.2,0,2.3,0.2,3.4,0.7c1.1,0.4,2.1,1.1,2.9,1.9c0.8,0.8,1.5,1.8,1.9,2.9
		c0.4,1.1,0.7,2.2,0.7,3.4h-32.8c0-2.4,0.9-4.6,2.6-6.3c1.7-1.7,3.9-2.6,6.3-2.6H124z"/>
	<path class="st5" d="M124,324.7c0,0,1.8,0.5,4,1.2c4.5,1.3,11,2.9,9.8,1.5l-0.1-0.1c-0.4-0.4-0.7-0.8-1-1.3
		c-0.2-0.4-0.3-0.8-0.2-1.3c0-0.4,0.2-0.9,0.4-1.2c0.8-1.2,1.9-2.2,3.1-3c0.5-0.4,1-0.7,1.6-1.1l0.1-0.1l0.5-0.4
		c0.8-0.9,1.7-1.7,2.6-2.4l-12.4-2.2l-7.3,9.1L124,324.7z"/>
	<path class="st5" d="M103.2,316.4c0.9,0.7,1.8,1.5,2.5,2.3l0.6,0.5h0.1c0.6,0.3,1.1,0.7,1.5,1c1.2,0.8,2.3,1.8,3.1,3.1
		c0.2,0.4,0.4,0.8,0.4,1.2c0,0.4-0.1,0.9-0.2,1.3c-0.2,0.5-0.6,0.9-1,1.3l-0.1,0.1c-1.2,1.4,5.3-0.2,9.8-1.5c2.3-0.6,4-1.2,4-1.2
		l-1.1-1.4l-7.3-9.1L103.2,316.4z"/>
	<path class="st3" d="M98,301.2h52.1v2.5H98V301.2z"/>
	<path class="st3" d="M111.3,325.9h25.4c-0.2-0.4-0.3-0.8-0.2-1.3c0-0.4,0.2-0.9,0.4-1.2h-25.7c0.2,0.4,0.4,0.8,0.4,1.2
		C111.6,325,111.5,325.5,111.3,325.9L111.3,325.9z"/>
	<path class="st6" d="M133.5,558.5h24.8l-3.9-1.5l-14,0.2l-6.5-0.2l0-8.5l6.5-7.8V341.2h-6.9v213.6h-15.1l-3,3.7H133.5z"/>
	<path class="st5" d="M214.1,548.6c-2.8-0.6-5.7-0.4-8.4,0.7l-0.6,0.1h-0.3c-1.1,0-2.2,0-3.4-0.1c-2.4-0.2-4.8-0.4-7.3-0.6
		c-7.1-0.5-13.6-1-20.6,0c-12.8,1.8-26.6-0.1-39.7-0.3v-4c0-2-0.4-4.3,3.1-6.7c3.5-2.4,7.5-3.2,19-5.6c11.5-2.5,21.1-11.1,21.1-11.1
		l0.7-7.3l2.4-1.6h13.5v8.3h12.4l7.4,0.5l3.6,11.4l-1,11.7L214.1,548.6z"/>
	<path class="st5" d="M338,379.9l-54,0.1l-4.9,4.3c0,0-10.1,17.6-9.2,17.6h34.7c1.1,0,11-1.9,14.7-4c3.7-2.1,13.6-10.9,13.6-10.9
		L338,379.9z"/>
	<path class="st1" d="M77.1,330.8v10.5h99.1c0,0-0.9-3.1,0.7-10.5H77.1z"/>
	<path class="st3" d="M193.3,514.8l0.5,5.7l10.6-1.1c0,0,1.4-4.6-1.6-4.6H193.3z"/>
	<path class="st2" d="M511.2,500.1c0.1,4.7,0.3,9.5,0.7,14.3c0.4,6.3,1.1,12.7,1.9,19.1c0.1,0.6,0.2,1.3,0.3,1.9
		c1,7.5,2.4,15.1,4,22.7h30.8c1.6-7.6,2.9-15.2,4-22.7c0.1-0.6,0.2-1.3,0.3-1.9c0.9-6.4,1.5-12.7,1.9-19.1c0.3-4.8,0.6-9.5,0.7-14.3
		c0.5-22.2-1.4-44.4-5.7-66.3c-0.4-1.9-0.7-3.8-1.2-5.6h-30.8c-0.4,1.9-0.8,3.8-1.2,5.6C512.6,455.6,510.7,477.8,511.2,500.1
		L511.2,500.1z"/>
	<path class="st3" d="M511.9,514.3c0.4,6.3,1.1,12.7,1.9,19.1c0.1,0.6,0.2,1.3,0.3,1.9h38.8c0.1-0.6,0.2-1.3,0.3-1.9
		c0.9-6.4,1.5-12.7,1.9-19.1H511.9z"/>
	<path class="st3" d="M516.9,433.8H550c-0.4-1.9-0.7-3.8-1.2-5.6h-30.8C517.7,430.1,517.3,431.9,516.9,433.8z"/>
	<path class="st1" d="M544.3,346.7c0.2-2,2-3.4,3.9-3.2c2,0.2,3.4,2,3.2,3.9l-6.3,59.5c-0.2,2-2,3.4-3.9,3.2c-2-0.2-3.4-2-3.2-3.9
		L544.3,346.7z"/>
	<path class="st7" d="M187.2,114.8c-8.2,0-14.8-6.6-14.8-14.8c0-8.2,6.6-14.8,14.8-14.8c8.2,0,14.8,6.6,14.8,14.8
		C202,108.2,195.4,114.8,187.2,114.8z"/>
	<path class="st8" d="M214.9,91.4c-5.5,0-9.9-4.4-9.9-9.9c0-5.5,4.4-9.9,9.9-9.9c5.5,0,9.9,4.4,9.9,9.9
		C224.8,86.9,220.4,91.4,214.9,91.4z"/>
	<path class="st3" d="M172.4,72.4c-2.7,0-5-2.2-5-5c0-2.7,2.2-5,5-5c2.7,0,5,2.2,5,5C177.4,70.2,175.2,72.4,172.4,72.4z"/>
	<path class="st9" d="M189.3,120.9c-16.5,0-29.9-13.4-29.9-29.8c0-16.5,13.4-29.8,29.9-29.8c16.5,0,29.9,13.4,29.9,29.8
		C219.2,107.6,205.8,120.9,189.3,120.9z"/>
	<path class="st2" d="M172.7,119.1c-4.4,0-8-3.6-8-8c0-4.4,3.6-8,8-8c4.4,0,8,3.6,8,8C180.7,115.5,177.1,119.1,172.7,119.1z"/>
	<path class="st5" d="M384.1,175l-10.5-5.3v-13.2v-13.2h-4.8c0,0-5.9-8.7-5.9-9.3c0-0.6-4.8-10.8-5.2-13.7
		c-0.5-2.9-1.8-9.3-1.4-14.4c0.4-5.1,0.5-6,0.5-6l-1.9-8.6l2-14.7l-4.6-3.1c0,0-4.9-5-4.9-10.3c0-5.3,1.6-10.9,4-13.3
		c2.4-2.4,11.2-9.6,25.4-8.1c14.2,1.4,30.8,13.5,30.8,13.5l3.3-1c0,0,10.7,2,16,10.5c5.4,8.5,3.8,31.4,3.8,31.4l-1.1,4.2v2.4
		l-0.9,3.7l-2.7,0.3c0,0-0.5,7.9-4.3,11.2c-3.8,3.3-3.4,3.9-3.4,3.9v31.6h-14.4l-3.6,10.5l-16.1,18.6l-2.2-4.8L384.1,175z"/>
	<path class="st8" d="M314.6,418.8h-51.8"/>
	<path class="st8" d="M480.3,318.7c-10.2,3.4-22.5,5.1-37.3,5.1h-28.6c-20.9,0-32.4,7.6-45.7,37.1c-7.1,15.7-14.4,31.1-23.8,42.1"/>
	<path class="st8" d="M455.5,182.7c60,9.1,70.5,58.2,62.8,92.6"/>
	<path class="st8" d="M475.5,204.4c4.4,2.2,8.6,4.9,12.3,8.2c13.5,12,18.1,30.3,16.3,47.9C501,291.6,486,308,440.3,308h-28.6
		c-20.9,0-44.8,10.5-58.1,39.9c-14.3,31.9-22.6,53.9-54.2,53.9h-28.6"/>
	<path class="st5" d="M328.3,245.4l6.3-30L328.3,245.4z"/>
	<path class="st8" d="M328.3,245.4l6.3-30"/>
	<path class="st8" d="M367,165l-0.9-10.9h7.5v42.3l26.6-32.3l3.7-10.5h19.3"/>
	<path class="st3" d="M231.6,472.8c5.1,14.2,8.6,23.4,8.6,23.4c14.6,2,24.7-2.1,30.5-12.3l-11.9-53.1"/>
	<path class="st8" d="M231.6,472.8c5.1,14.2,8.6,23.4,8.6,23.4c14.6,2,24.7-2.1,30.5-12.3l-11.9-53.1"/>
	<path class="st8" d="M360.9,293.7c0,0-2.5,8.4-3.3,12.7c-0.2,0.8,0,1.7,0.4,2.4c0.4,0.7,1.1,1.3,1.9,1.6l4.1,1.3"/>
	<path class="st8" d="M366.5,296c0,0-2.5,8.4-3.2,12.7c-0.2,0.8,0,1.7,0.4,2.4c0.4,0.7,1.1,1.3,1.9,1.6l4.1,1.3"/>
	<path class="st8" d="M372,299.3c-1.3,3.8-2.4,7.7-3.2,11.7c-0.2,0.8,0,1.7,0.4,2.4c0.4,0.7,1.1,1.3,1.9,1.6l5.4,1.7
		c0.9,0.3,1.8,0.2,2.7-0.2c0.8-0.4,1.5-1,1.9-1.9l1.8-3.7c0.3-0.6,0.4-1.2,0.2-1.9c-0.1-0.6-0.5-1.2-1-1.6l-0.5-0.4
		c-0.5-0.4-1.1-0.6-1.8-0.6c-0.7,0.1-1.3,0.4-1.7,0.9l-1.9,2.1"/>
	<path class="st10" d="M205.2,167.7c8.8,0.3,16.1,0.5,19.9,0.1c0.9-0.1,1.7-0.3,2.5-0.8c0.8-0.4,1.4-1.1,1.9-1.8c0.6-1,1-2.2,1-3.3
		c0-1.2-0.3-2.4-0.9-3.4c-1.7-3.2-4.8-9-5.5-12.2c-0.2-0.8-0.2-1.7,0.1-2.5c0.3-0.8,0.9-1.5,1.6-2c0.5-0.3,1.1-0.4,1.7-0.3
		c0.6,0.1,1.1,0.4,1.4,0.9l15.8,23.1c1.5,2.1,2.2,7.1,2.2,7.1c0,17.7-10.3,23.8-20.6,24.2c-4,0.1,3,0.1,0,0
		c-3.6-0.1-13.2-1.3-15.8-3.5l-7.4-6c-0.9-0.7-1.6-1.7-2.1-2.7c-0.5-1-0.7-2.2-0.7-3.4v-14.6c0-0.4,0.2-0.8,0.5-1
		c0.3-0.3,0.7-0.4,1-0.4l0,0c0.8,0,1.5,0.2,2.1,0.7C204.7,166.2,205.1,166.9,205.2,167.7c0.9,4.5,1.5,9,1.8,13.5
		c0,0,5.7,4.5,7.6,6.3"/>
	<path class="st10" d="M185.2,174.5l-1.2-0.2c-1.1-0.2-2.2-0.8-3-1.6c-5.5-5.4-13.5-14.5-16.5-18.1c-0.1-0.2-0.2-0.4-0.3-0.6
		c-0.1-0.2-0.1-0.4,0-0.7c0-0.2,0.1-0.4,0.3-0.6c0.1-0.2,0.3-0.3,0.5-0.4c0.7-0.3,1.5-0.5,2.3-0.5c0.8,0,1.6,0.3,2.3,0.7
		c3.7,2.5,7.3,5.3,10.5,8.3"/>
	<path class="st11" d="M193.5,178.8l-3.9-0.7c-0.8-0.1-1.5-0.5-2.1-1c-0.6-0.5-1.1-1.1-1.4-1.9l-7.9-20.9c-0.1-0.2-0.1-0.5-0.1-0.7
		c0-0.2,0.1-0.5,0.3-0.6c0.1-0.2,0.3-0.3,0.5-0.4c0.2-0.1,0.4-0.1,0.7-0.1h1.5c0.6,0,1.2,0.1,1.7,0.4c0.5,0.3,1,0.7,1.3,1.3
		c1.8,3.3,5.7,10.7,6.5,14.6"/>
	<path class="st11" d="M200.4,184.8l-3.3-1c-0.7-0.2-1.4-0.6-1.9-1.2c-0.5-0.5-0.9-1.2-1.1-1.9l-5.5-20.1c-0.1-0.2,0-0.4,0-0.7
		c0.1-0.2,0.1-0.4,0.3-0.6c0.1-0.2,0.3-0.3,0.5-0.4c0.2-0.1,0.4-0.1,0.6-0.1h1.4c0.7,0,1.4,0.2,1.9,0.6c0.6,0.4,1,0.9,1.3,1.6
		c1,2.6,2.7,7.2,3.9,11.3l1.9,6.3"/>
	<path class="st8" d="M298.8,247.3c2.2-1,4.3-2.1,6.3-3.4c1.6-1,12.7-7.5,15.6-9.2"/>
	<path class="st8" d="M226.5,196.6c0,0,6-0.6,13.3,6.7c3.5,3.5,12,12.9,20,21.9"/>
	<path class="st8" d="M295.3,219.1c0,0-31.2-25.5-37.8-32.2c-6.7-6.7-10.5-10.5-10.5-16.2"/>
	<path class="st8" d="M401.5,296.3c-2.3,1-3.4,2.2-5.6,4.1c-2.4,2-5.2,3.5-8.2,4.3c-3,0.8-6.2,1-9.3,0.6l-2.9,6"/>
	<path class="st8" d="M486.9,282c3.8,14.3-4.8,20.9-21.9,20.9c-13.3,0-41.4-8.6-59-7.6c-1.5,0.1-3.1,0.4-4.5,1"/>
	<path class="st8" d="M387.6,276.2c2.9-0.8,5.8-1.4,8.8-1.8c14.3-1.9,51.9-1.1,51.9-1.1s-12-28.6-24.3-53.6"/>
	<path class="st8" d="M359.5,298.4l-8.4,5.6c-0.2,0.2-0.4,0.4-0.6,0.6l-8.3,8.8c-0.6,0.7-1.5,1.3-2.4,1.5c-0.9,0.2-1.9,0.2-2.8-0.1
		l-0.4-0.1c-0.3-0.1-0.5-0.3-0.7-0.5c-0.2-0.2-0.3-0.5-0.4-0.7c-0.1-0.3-0.1-0.6-0.1-0.8c0-0.3,0.2-0.6,0.3-0.8
		c2.2-3.2,5.5-8.5,10.3-13.5c5.7-6,8.3-8.3,12.4-10c7.5-3.2,18.1-8.9,29.2-12.1"/>
	<path class="st6" d="M364.1,331.6h-97.4c-5,0.2-9.7,1.9-13.7,4.9c-4,3-7,7-8.6,11.7l-59.2,161.9c8.3,6.6,17.8,10.5,29.5,10.5
		l64.9-137c0.5-1.1,1.4-2,2.4-2.7c1-0.7,2.2-1,3.5-1H338c8.3-15.6,10.9-21.5,15.6-31.9C356.3,342,359.8,336.5,364.1,331.6z"/>
	<path class="st12" d="M236.6,476.9l26.4-55.8"/>
	<path class="st8" d="M300.6,274.1c8-4.8,15.4-10.5,22.1-17"/>
	<path class="st8" d="M188.2,321.4c-8.2,8-14.3,19.1-11.4,34.3c3.4,17.6,11,37,26.6,49.3c14.7,11.5,11.7,9.4,11.7,9.4"/>
	<path class="st8" d="M295.6,418.8h126.1c7.5,0,14.8-1.9,21.3-5.6c6.5-3.7,11.9-9,15.8-15.4c18.2-30.5,49.3-82.4,59-120.8"/>
	<path class="st8" d="M373.6,173.6v-25.9"/>
	<path class="st8" d="M418.3,153.6v-39"/>
	<path class="st6" d="M208.6,444.1c1.1-13.5-2.3-26-17-50.6c4.7,5.3,9.9,10.1,15.5,14.3c8.1,5.8,8.1,6.5,8.1,6.5l5,18.6l-9,11.2
		H208.6z"/>
	<path class="st6" d="M304.6,418.8c9,0,26,0,26,23c0,23-3.3,116.7-3.3,116.7h7.6c0,0,3.3-97.6,3.3-116.6c0-23,23-23,23-23
		L304.6,418.8z"/>
	<path class="st6" d="M298.9,418.8c0,0,10.3,0.1,7.5,13.6l-31.3,126.1h6.2l32-125c1-4.7,3.6-8.9,7.3-12l-6-2.7H298.9z"/>
	<path class="st8" d="M12.7,558.5h553.1"/>
	<path class="st13" d="M406.7,418.8c0,0,2.9,0.1,7.9,0.1c12.4-0.1,19,19.3,19,19.3l38.4,120.2h7.9c0,0-22.7-72-31.4-99.1
		c-8.7-27.2-9.7-28.1,14.2-68.2c0,0-9.9,19.9-26.9,25C423.2,421.9,406.7,418.8,406.7,418.8z"/>
	<path class="st2" d="M137,537.8c3.4-2.4,7.5-3.2,19-5.6c11.5-2.5,21.1-11.1,21.1-11.1l0.7-7.3l2.4-1.6h11l2,1.1l0.5,7.3h12.4
		l7.4,0.5l3.6,11.4l-1,11.7l-2.2,5c-1.9-0.4-3.9-0.5-5.8-0.2c-4.8,0.7-20.9,0.6-21.7,0.4h0.1c-2.7-0.5-5.5-0.3-8.1,0.6
		c-2.7-0.1-5.4-0.1-8.1-0.1c-6.4-0.1-12.7-0.5-19-0.7c-5.8-0.2-11.5,0-17.3-0.1v-0.6v-4C133.9,542.5,133.5,540.1,137,537.8z"/>
	<path class="st8" d="M208.8,557.1h-70.7c-1.2,0-2.4-0.5-3.3-1.4s-1.4-2.1-1.4-3.3V549h79.9v3.4c0,0.6-0.1,1.2-0.4,1.8
		c-0.2,0.6-0.6,1.1-1,1.5c-0.4,0.4-0.9,0.8-1.5,1C210,557,209.4,557.1,208.8,557.1z"/>
	<path class="st8" d="M213.5,549c4.9-3.3,5.1-28.3-1.4-28.5h-18.4"/>
	<path class="st8" d="M193.7,523.3v-8.5c0-0.4-0.1-0.7-0.2-1c-0.1-0.3-0.3-0.6-0.6-0.9c-0.2-0.3-0.5-0.5-0.9-0.6
		c-0.3-0.1-0.7-0.2-1-0.2h-10.8c-0.7,0-1.4,0.3-1.8,0.8c-0.5,0.5-0.8,1.2-0.8,1.8v5.7l-7.2,4.6c-5.7,3.7-12,6.5-18.5,8.3l-14.4,4.1
		c-1.2,0.4-2.2,1.1-2.9,2.1c-0.7,1-1.1,2.2-1.1,3.4v5.9"/>
	<path class="st8" d="M268.3,487.4l1.9,6.1c0.2,0.8,0,1.7-0.4,2.5c-2,3.6-4.9,6.5-8.4,8.4"/>
	<path class="st8" d="M243.5,496.5l1.1,3.4"/>
	<path class="st3" d="M372,281.8c3.8-1.1,7.5-2.7,11-4.7l21.1-83.7c6.8-29,29.8-25.3,36-23.3c-0.4-0.1-0.8-0.3-1.1-0.4l-13.8-5.4
		c-1.1-0.4-2.3-0.7-3.6-0.6c-11.6,0.2-19.5,6.8-24.8,23.3C394.8,193.4,381.9,243.9,372,281.8z"/>
	<path class="st14" d="M439.1,169.8c-0.7-0.2-1.5-0.6-2.4-1L439.1,169.8z"/>
	<path class="st3" d="M360.8,324.4c0,0,1-4.1,3.2-12.7c2.8,1.8,5.9,3.1,9.1,4.1l-1.9,7.4L360.8,324.4z"/>
	<path class="st3" d="M349.3,178.7c2.3-8.6,5-13.4,18.1-14.3v1.2c-4,2-7.6,6.3-9.4,14.5l-27.8,145l-7.5-0.7
		C322.7,324.4,346.5,189.2,349.3,178.7z"/>
	<path class="st8" d="M349.1,306.8l-3.9,17.7"/>
	<path class="st8" d="M373.6,196.4l-21,94.6"/>
	<path class="st8" d="M401.5,296.3c0,0,3.3-17.2-13.9-20.1"/>
	<path class="st8" d="M441.4,273.2l16.2,0.3"/>
	<path class="st11" d="M200.4,167.3h-2.9"/>
	<path class="st3" d="M227.2,440.5l33-84.4l20.6-14.3l-4.5-6.4l-44.3-5.8c-17-2.3-38.1,10-24.4,58.8c4.4,15.7,6.9,25.4,12.8,43"/>
	<path class="st8" d="M227.2,440.5l33-84.4l20.6-14.3l-4.5-6.4l-44.3-5.8c-17-2.3-38.1,10-24.4,58.8c4.4,15.7,6.9,25.4,12.8,43"/>
	<path class="st12" d="M267.9,331.6h-1.3c-5,0.2-9.7,1.9-13.7,4.8c-4,2.9-7,7-8.6,11.7l-40.5,105.5"/>
	<path class="st15" d="M364.1,331.6H196.9c-1.2,0-2.4-0.4-3.4-1c-1-0.7-1.8-1.6-2.3-2.7l-40.4-89.2c-0.3-0.6-0.4-1.3-0.4-2.1
		c0-0.7,0.3-1.4,0.6-2c0.4-0.6,0.9-1.1,1.5-1.4c0.6-0.3,1.3-0.5,2-0.6l122-1.7c1.4,0,2.8,0.4,4,1.1c1.2,0.8,2.1,1.8,2.7,3.1l40,89.2
		h47L364.1,331.6z"/>
	<path class="st8" d="M375.1,112.9c-1.9,1.5-5.3,1.8-6.7,1.7c-1.8-0.1-2.3-1.2-2.3-2.3c0.1-5.7,0.7-11.3,1.7-16.9"/>
	<path class="st8" d="M366.1,89.2c-1.3-0.7-2.8-1-4.3-0.9c-1.5,0.1-2.9,0.7-4.1,1.6"/>
	<path class="st7" d="M422.9,96.7c0-1-0.1-1.9-0.3-2.9c0-1,0-2,0-3l17,16.2c0.2,0.2,0.3,0.5,0.3,0.7c0,0.3-0.1,0.5-0.3,0.7l-1.4,1.5
		c-0.2,0.2-0.5,0.3-0.7,0.3c-0.3,0-0.5-0.1-0.7-0.3L422.9,96.7C422.9,96.7,422.9,96.7,422.9,96.7z"/>
	<path class="st7" d="M402.1,71.1L414,82.6c-0.7,0.2-1.3,0.6-1.8,1.1s-0.9,1.1-1.1,1.8l-11.8-11.3l-3.4-6.2L402.1,71.1z"/>
	<path class="st3" d="M436.8,110c0.2,0.2,0.5,0.3,0.7,0.3c0.3,0,0.5-0.1,0.7-0.3l1.4-1.5c0.1-0.1,0.2-0.2,0.2-0.3
		c0.1-0.1,0.1-0.3,0.1-0.4s0-0.3-0.1-0.4c-0.1-0.1-0.1-0.2-0.2-0.3l-6.5-6.1c0.1,0.2,0.2,0.4,0.1,0.6c0,0.2-0.1,0.4-0.3,0.6
		l-1.4,1.5c-0.2,0.2-0.5,0.3-0.7,0.3s-0.5-0.1-0.7-0.3L436.8,110z"/>
	<path class="st3" d="M395.8,68l3.4,6.2l2.9-3L395.8,68z"/>
	<path class="st8" d="M365.7,61.8c-3.8,3.9-6.7,8.6-8.5,13.7c-1.9,5.1-2.6,10.5-2.3,15.9c0,0,1.9,6.3,1.9,8.6
		c0,2.2-1.8,9.6,1.5,21.6c2,6.9,4.8,13.5,8.4,19.7c0.5,0.8,1.1,1.5,1.9,2c0.8,0.5,1.7,0.7,2.7,0.7h10.6c2.8,0,5.6-0.9,7.9-2.6
		c6.4-4.6,19.4-14.2,21.5-17.7c2.9-4.8,2.9-12.5,2.9-12.5"/>
	<path class="st8" d="M414.4,106c2.6,0,4.2-1.4,6.2-3.7c1.8-2.1,3.2-5.4,2.5-11.4c-1.5-12.9-13.7-10.8-13.7-0.7"/>
	<path class="st8" d="M409.9,86.6c0,0-9.4,5.7-19-13"/>
	<path class="st8" d="M386.9,69.8c0,0-18-15.6-30.1-3.5"/>
	<path class="st8" d="M374.3,89.1c4.4-1.3,10.5-1,12.6-0.2c2.1,0.7,7,5.9,7,5.9"/>
	<path class="st8" d="M420.7,118.6c0,0,7.2-2.5,4.8-11.7"/>
	<path class="st8" d="M430.5,111.6c-0.3-1.8-0.9-3.5-1.8-5"/>
	<path class="st8" d="M409.4,54.2c17,1.9,21.3,16.9,21.3,23.4v18.7"/>
	<path class="st8" d="M412,59.1c0,0-9.9-9.4-22.7-14.4c-12.7-5-30.5-4.4-38.4,5.7c-7.9,10.1-1.8,20.2,2,23.9"/>
	<path class="st8" d="M369.8,122.6c6.1,0.8,10.1-0.6,11.6-0.6c1.5,0,0,5.5-5.1,6.3c-1.4,0.2-2.7,0-4-0.5"/>
	<path class="st3" d="M380.4,98.7c-0.3-1.4,0.2-2.7,1.1-2.9c0.9-0.2,1.9,0.8,2.2,2.1c0.3,1.4-0.2,2.7-1.1,2.9
		C381.7,101,380.7,100.1,380.4,98.7z"/>
	<path class="st3" d="M360.2,99.4c-0.3-1.4,0.2-2.7,1.1-2.9c0.9-0.2,1.9,0.8,2.2,2.1c0.3,1.4-0.2,2.7-1.1,2.9
		C361.5,101.8,360.5,100.8,360.2,99.4z"/>
	<path class="st8" d="M175.5,521.9l9.7,11"/>
	<path class="st8" d="M169,526.2l7.1,8.7"/>
	<path class="st8" d="M163.7,529.8l5,6.7"/>
	<path class="st1" d="M225.8,293c-7.3-6.1-9.8-15.1-5.5-20.2c4.2-5.1,13.6-4.3,20.9,1.8c7.3,6.1,9.8,15.1,5.5,20.2
		C242.4,299.9,233.1,299.1,225.8,293z"/>
	<path class="st7" d="M173.8,260.1h18l-8.1-18h-18L173.8,260.1z"/>
	<path class="st3" d="M167,245h18l-1.3-2.9h-18L167,245z"/>
	<path class="st2" d="M95.4,357.4c0,0,1.4,37.8-1,66.8c-1.9,23.8-4.2,47.8-13.8,69.8c-3.3-8.6-8.3-15.7-13.6-23.2
		c9,2.9,7.8-13,8.7-18.3c1.6-9.4,3.4-18.7,5.2-28.1c3.7-18.9,2.5-17.7,6.9-36.4C90.2,378.2,95.4,357.4,95.4,357.4z"/>
	<path class="st1" d="M74.2,511.9c-3.5-55-3.9-97.4-20.5-150.3c17.5,23.8,23.5,58,27.8,86.4c4.3,28.4-1.6,28.4-2.1,57.1l-3.7-6.8"/>
	<path class="st2" d="M84.3,508.2c-1.9,0.1-3.9,0.5-5.7,1c0-0.1,0.1-0.2,0.1-0.4c9.1-25.9,11.9-43.6,37.2-72.5
		c-13.2,24.7-20.8,48.6-27.7,71.5L84.3,508.2z"/>
	<path class="st2" d="M77.2,509.7c-3,0.2-6.1,0.4-9.1,0.6c-0.4-3-0.7-5.9-0.7-8.9c0.9-30.8-3.2-61.5-12.1-90.9
		c15.7,21.3,24.9,46.7,26.2,73.2c0.4,7.2,0.8,16.5-0.3,25C79.8,508.8,78.5,509.2,77.2,509.7L77.2,509.7z"/>
	<path class="st1" d="M85.9,508l-1.6,0.1c-2.4,0.2-4.9,0.7-7.2,1.5l-3,0.2c2-11.2,4.3-22.3,7-33.4c4-16.9,8.8-33.6,14.3-50.1
		c2.8-8.2,5.7-16.4,8.8-24.6c1.9-5,9.3-22.6,9.3-22.6s-11.7,52-15.3,72.5C94.8,470.6,91.6,489.6,85.9,508z"/>
	<path class="st1" d="M81.2,508.6c-1.4,0.3-2.7,0.6-4.1,1.1c-2.6,0.2-5.2,0.4-7.9,0.5c-7.8-33.4-22.6-65.6-37.3-97.3
		C58.1,439.5,75.3,473.4,81.2,508.6z"/>
	<path class="st5" d="M48.4,486.1c0,16.1,13.3,29.2,29.8,29.2c16.4,0,29.8-13,29.8-29.2H48.4z"/>
	<path class="st3" d="M48.4,482.4H108v3.7H48.4V482.4z"/>
	<path class="st16" d="M109.6,498.7H48.4"/>
	<path class="st16" d="M96.6,498.7l19.5,59.3"/>
	<path class="st16" d="M61.4,498.7l-19.7,59.8"/>
	<path class="st2" d="M220.1,550.9v-7.5l2.4-4.2l6.8-4.4l9.3-23.2l-1.5-8.1l2-3.3l17.3,1l3.3,1.8l1.1,2.7l2.5-2.5l6.9-8.1l-0.6-4.2
		c0,0,2.5,0,4.3,3.2c1.8,3.2,5.7,8.8,5.7,15.8c0,6.9-19.6,32.4-19.6,32.4l-6.9,8.9L220.1,550.9z"/>
	<path class="st8" d="M262.2,509.8l-1.8-5.8c-0.3-0.9-0.8-1.6-1.5-2.2c-0.7-0.6-1.6-0.9-2.4-0.9l-14.8-1c-0.7,0-1.4,0.1-2.1,0.4
		c-0.7,0.3-1.2,0.7-1.7,1.3c-0.4,0.5-0.7,1.1-0.8,1.8c-0.1,0.7-0.1,1.3,0,2l1.5,6l-7.8,20.8c-0.6,1.7-1.8,3.1-3.3,4l-4.9,2.9
		c-0.7,0.4-1.3,1-1.7,1.8c-0.4,0.7-0.6,1.6-0.6,2.4v7.5h33.1c0,0,21.4-26.8,26.2-38.7c0.6-3.3,0.2-6.7-1.2-9.8
		c-1.6-3.6-3.5-7.1-5.5-10.6c0,0-0.5-1.1-3.1-1.1c0,0,3.2,6.7-8.4,13.7"/>
	<path class="st8" d="M220.1,550.9v5.6c0,0.3,0.1,0.5,0.1,0.7c0.1,0.2,0.2,0.5,0.4,0.6c0.2,0.2,0.4,0.3,0.6,0.4
		c0.2,0.1,0.5,0.1,0.7,0.1l33.7-0.1c0.6,0,1.2-0.1,1.7-0.4c0.5-0.3,1-0.7,1.3-1.1l24.6-36.1c0.5-0.8,0.9-1.7,1-2.6
		c0.1-0.9,0.1-1.9-0.2-2.8c-0.5-1.8-2.6-4.1-4-6.3"/>
	<path class="st8" d="M238,514.5l16.9,0.5"/>
	<path class="st8" d="M234.9,522.2l16.6,0.5"/>
	<path class="st8" d="M231.6,530l15.1,0.3"/>
	<path class="st8" d="M221.7,540.6h23.1"/>
</g>
</svg>
